<svg width="180.000000" height="40.000000" viewBox="0 0 180 40" fill="none" xmlns="http://www.w3.org/2000/svg" xmlns:xlink="http://www.w3.org/1999/xlink">
	
	<defs/>
	<path id="Vector" d="M27.2 15.55C27.2 19.23 24.19 22.22 20.47 22.22C16.76 22.22 13.75 19.23 13.75 15.55C13.75 11.87 16.76 8.88 20.47 8.88C24.19 8.88 27.2 11.87 27.2 15.55Z" fill="#FA4616" fill-opacity="1.000000" fill-rule="evenodd"/>
	<path id="Vector" d="M0 31.11L29.3 31.11L14.65 4.44L0 31.11Z" fill="#0047BB" fill-opacity="1.000000" fill-rule="evenodd"/>
	<path id="Vector" d="M17.47 9.58C15.27 10.68 13.75 12.94 13.75 15.55C13.75 19.23 16.76 22.22 20.47 22.22C21.73 22.22 22.9 21.88 23.9 21.29L17.47 9.58Z" fill="#001A72" fill-opacity="1.000000" fill-rule="evenodd"/>
	<path id="Vector" d="M67.5 31.4C64.62 31.4 62.22 30.75 60.29 29.44C58.39 28.13 57.23 26.32 56.81 23.99L61.36 23.99C61.7 25.19 62.36 26.08 63.34 26.66C64.31 27.2 65.73 27.48 67.57 27.48C69.03 27.48 70.16 27.27 70.98 26.85C71.82 26.41 72.25 25.79 72.25 25.01C72.25 24.48 72.04 24.05 71.61 23.71C71.22 23.37 70.74 23.12 70.19 22.97C69.66 22.81 68.79 22.59 67.57 22.3C67.13 22.2 66.78 22.12 66.54 22.07C63.3 21.28 61.04 20.47 59.77 19.63C58.51 18.77 57.87 17.48 57.87 15.75C57.87 13.6 58.71 11.93 60.37 10.73C62.06 9.5 64.29 8.88 67.06 8.88C69.78 8.88 71.93 9.47 73.51 10.65C75.12 11.8 76.14 13.4 76.56 15.44L72.05 15.44C71.41 13.68 69.73 12.81 66.98 12.81C65.56 12.81 64.43 13.03 63.62 13.47C62.8 13.92 62.39 14.52 62.39 15.28C62.39 15.93 62.72 16.42 63.38 16.73C64.04 17.02 65.42 17.41 67.53 17.91C68.91 18.22 69.99 18.5 70.78 18.73C71.6 18.94 72.44 19.23 73.31 19.59C74.19 19.96 74.85 20.35 75.29 20.77C75.74 21.19 76.11 21.71 76.4 22.34C76.69 22.94 76.84 23.66 76.84 24.5C76.84 26.72 75.95 28.43 74.19 29.64C72.44 30.81 70.21 31.4 67.5 31.4Z" fill="#FFFFFF" fill-opacity="1.000000" fill-rule="nonzero"/>
	<path id="Vector" d="M49.94 8.88L54.41 8.88L54.41 31.11L49.94 31.11L49.94 27.32C48.2 30.04 45.67 31.4 42.34 31.4C39.41 31.4 37 30.36 35.1 28.26C33.22 26.15 32.29 23.44 32.29 20.14C32.29 16.87 33.24 14.18 35.14 12.06C37.04 9.94 39.43 8.88 42.3 8.88C45.63 8.88 48.17 10.27 49.94 13.04L49.94 8.88ZM43.29 27.17C45.22 27.17 46.81 26.51 48.08 25.2C49.35 23.9 49.98 22.21 49.98 20.14C49.98 18.1 49.35 16.43 48.08 15.12C46.81 13.79 45.22 13.12 43.29 13.12C41.39 13.12 39.83 13.77 38.62 15.08C37.41 16.39 36.8 18.08 36.8 20.14C36.8 22.21 37.41 23.9 38.62 25.2C39.83 26.51 41.39 27.17 43.29 27.17Z" fill="#FFFFFF" fill-opacity="1.000000" fill-rule="nonzero"/>
	<path id="Vector" d="M175.21 8.88L180 8.88L165.94 40L161.16 40L166.31 28.09L157.57 8.88L162.65 8.88L168.93 23.11L175.21 8.88Z" fill="#FFFFFF" fill-opacity="1.000000" fill-rule="nonzero"/>
	<path id="Vector" d="M154.09 26.24L154.88 29.84C153.11 30.88 151.03 31.4 148.65 31.4C146.3 31.4 144.39 30.66 142.9 29.17C141.42 27.69 140.83 25.58 140.83 22.74L140.83 13.03L136.64 13.03L136.64 8.88L140.83 8.88L140.83 4.44L145.31 2.96L145.31 8.88L154.88 8.88L154.88 13.03L145.31 13.03L145.31 22.44C145.31 25.67 146.59 27.3 149.45 27.3C150.5 27.3 152.05 26.94 154.09 26.24Z" fill="#FFFFFF" fill-opacity="1.000000" fill-rule="nonzero"/>
	<path id="Vector" d="M129.16 31.11L129.16 8.88L133.65 8.88L133.65 31.11L129.16 31.11Z" fill="#FFFFFF" fill-opacity="1.000000" fill-rule="nonzero"/>
	<path id="Vector" d="M124.86 8.88C125.42 8.88 125.86 8.92 126.18 9L126.18 13.55C125.64 13.5 125.19 13.47 124.82 13.47C122.63 13.47 120.87 14.12 119.54 15.41C118.2 16.67 117.54 18.58 117.54 21.14L117.5 31.11L113.02 31.11L113.05 8.88L117.54 8.88L117.5 13.62C118.89 10.43 121.36 8.88 124.86 8.88Z" fill="#FFFFFF" fill-opacity="1.000000" fill-rule="nonzero"/>
	<path id="Vector" d="M105.54 31.11L105.54 8.88L110.03 8.88L110.03 31.11L105.54 31.11Z" fill="#FFFFFF" fill-opacity="1.000000" fill-rule="nonzero"/>
	<path id="Vector" d="M109.82 0.8C109.27 0.26 108.59 0 107.77 0C106.97 0 106.3 0.26 105.76 0.8C105.22 1.31 104.95 1.97 104.95 2.77C104.95 3.6 105.22 4.28 105.76 4.82C106.3 5.36 106.97 5.62 107.77 5.62C108.59 5.62 109.27 5.36 109.82 4.82C110.36 4.28 110.63 3.6 110.63 2.77C110.63 1.97 110.36 1.31 109.82 0.8Z" fill="#FFFFFF" fill-opacity="1.000000" fill-rule="nonzero"/>
	<path id="Vector" d="M133.44 0.8C132.89 0.26 132.21 0 131.39 0C130.59 0 129.92 0.26 129.38 0.8C128.84 1.31 128.57 1.97 128.57 2.77C128.57 3.6 128.84 4.28 129.38 4.82C129.92 5.36 130.59 5.62 131.39 5.62C132.21 5.62 132.89 5.36 133.44 4.82C133.98 4.28 134.25 3.6 134.25 2.77C134.25 1.97 133.98 1.31 133.44 0.8Z" fill="#FFFFFF" fill-opacity="1.000000" fill-rule="nonzero"/>
	<path id="Vector" d="M92.59 8.88C95.47 8.88 97.85 9.95 99.76 12.08C101.66 14.2 102.61 16.91 102.61 20.19C102.61 23.5 101.66 26.22 99.76 28.35C97.88 30.45 95.48 31.5 92.55 31.5C89.25 31.5 86.69 30 84.92 27.27L84.92 40L80.44 40L80.43 8.88L84.91 8.88L84.92 13.05C86.69 10.27 89.27 8.88 92.59 8.88ZM91.6 27.25C93.5 27.25 95.06 26.59 96.27 25.28C97.49 23.96 98.09 22.27 98.09 20.19C98.09 18.12 97.49 16.42 96.27 15.11C95.06 13.8 93.5 13.14 91.6 13.14C89.67 13.14 88.08 13.81 86.81 15.15C85.55 16.46 84.91 18.15 84.91 20.19C84.91 22.27 85.55 23.96 86.81 25.28C88.08 26.59 89.67 27.25 91.6 27.25Z" fill="#FFFFFF" fill-opacity="1.000000" fill-rule="nonzero"/>
</svg>
