<svg width="22.000000" height="21.000000" viewBox="0 0 22 21" fill="none" xmlns="http://www.w3.org/2000/svg" xmlns:xlink="http://www.w3.org/1999/xlink">
	<desc>
			Created with Pixso.
	</desc>
	<defs/>
	<path id="Union" d="M13.4424 0L8.58105 0C7.3147 0 6.14355 0.673096 5.65796 1.8811C5.44897 2.40137 5.2981 2.95703 4.6189 2.99829C4.46875 3.00732 4.31812 3.00586 4.16772 3.00439C3.98022 3.00269 3.79272 3.00098 3.60571 3.01953C1.70825 3.20752 0.20752 4.70825 0.0195312 6.60571C0 6.80347 0 7.02563 0 7.32544C0.000244141 9.08838 0.000244141 10.8513 0.000244141 12.6143C0 13.49 0 14.3657 0 15.2412C0 16.0464 0 16.7107 0.0441895 17.2517C0.159912 18.6689 0.888184 19.9038 2.18408 20.564C2.66943 20.8113 3.18604 20.9099 3.74829 20.9558C4.28931 21 4.95361 21 5.75879 21L16.2415 21C17.0464 21 17.7107 21 18.252 20.9558C18.814 20.9099 19.3306 20.8113 19.8159 20.564C21.1118 19.9038 21.8401 18.6689 21.9558 17.2517C22 16.7107 22 16.0464 22 15.2412L22 7.3772L22 7.32544C22 7.02563 22.0002 6.80347 21.9805 6.60571C21.7925 4.70825 20.2917 3.20752 18.3943 3.01953C18.2073 3.00098 18.0198 3.00269 17.8323 3.00439C17.6819 3.00586 17.5312 3.00732 17.3811 2.99829C16.7017 2.95703 16.551 2.40112 16.342 1.8811C15.8621 0.687256 14.6995 -0.000244141 13.4424 0ZM7.51367 2.62695C7.69727 2.17041 8.12598 2 8.58105 2L13.4189 2C13.874 2 14.3027 2.17041 14.4863 2.62695C14.9897 3.87915 15.7776 4.90479 17.2603 4.99463C17.4004 5.00293 17.541 5.00073 17.6819 4.99854C17.854 4.99561 18.0261 4.99292 18.1973 5.00977C19.1458 5.10376 19.8962 5.85425 19.9902 6.80273C19.9988 6.88867 20 7.00293 20 7.3772L20 15.2C20 16.0566 19.9993 16.6389 19.9624 17.0889C19.9026 17.8223 19.5925 18.4331 18.908 18.782C18.7517 18.8618 18.5273 18.9265 18.0889 18.9624C17.6389 18.9993 17.0566 19 16.2 19L5.80005 19C4.94336 19 4.36108 18.9993 3.91113 18.9624C3.47266 18.9265 3.24854 18.8618 3.09204 18.782C2.40747 18.4331 2.09741 17.8223 2.0376 17.0889C2.00073 16.6389 2 16.0566 2 15.2L2 7.3772C2 7.00293 2.00122 6.88867 2.00977 6.80273C2.10376 5.85425 2.85425 5.10376 3.80273 5.00977C3.97412 4.99268 4.14624 4.99561 4.31836 4.99829C4.45898 5.00073 4.59961 5.00293 4.73975 4.99463C6.22217 4.90479 7.01025 3.87964 7.51367 2.62695ZM11 6.5C8.23853 6.5 6 8.73853 6 11.5C6 14.2615 8.23853 16.5 11 16.5C13.7615 16.5 16 14.2615 16 11.5C16 8.73853 13.7615 6.5 11 6.5ZM8 11.5C8 9.84326 9.34326 8.5 11 8.5C12.657 8.5 14 9.84326 14 11.5C14 13.1567 12.657 14.5 11 14.5C9.34326 14.5 8 13.1567 8 11.5Z" clip-rule="evenodd" fill="#E1E3E6" fill-opacity="1.000000" fill-rule="evenodd"/>
</svg>
