<svg width="14.000000" height="14.000000" viewBox="0 0 14 14" fill="none" xmlns="http://www.w3.org/2000/svg" xmlns:xlink="http://www.w3.org/1999/xlink">
	<desc>
			Created with Pixso.
	</desc>
	<defs/>
	<path id="Union" d="M1.70715 0.292847C1.31653 -0.0976562 0.683472 -0.0976562 0.292847 0.292847C-0.0976562 0.683472 -0.0976562 1.31653 0.292847 1.70715L5.58582 7L0.292847 12.2928C-0.0976562 12.6835 -0.0976562 13.3165 0.292847 13.7072C0.683472 14.0977 1.31653 14.0977 1.70715 13.7072L7 8.41418L12.2928 13.7072C12.6835 14.0977 13.3165 14.0977 13.7072 13.7072C14.0977 13.3165 14.0977 12.6835 13.7072 12.2928L8.41418 7L13.7072 1.70715C14.0977 1.31653 14.0977 0.683472 13.7072 0.292847C13.3165 -0.0976562 12.6835 -0.0976562 12.2928 0.292847L7 5.58582L1.70715 0.292847Z" clip-rule="evenodd" fill="#B0B1B6" fill-opacity="1.000000" fill-rule="evenodd"/>
</svg>
